<?xml version="1.0" encoding="utf-8"?>
<!-- Generator: Adobe Illustrator 23.0.6, SVG Export Plug-In . SVG Version: 6.00 Build 0)  -->
<svg version="1.1" id="Layer_1" xmlns="http://www.w3.org/2000/svg" xmlns:xlink="http://www.w3.org/1999/xlink" x="0px" y="0px"
	 viewBox="0 0 29 25" style="enable-background:new 0 0 29 25;" xml:space="preserve">
<style type="text/css">
	.st0{opacity:0.2;}
	.st1{fill:#333366;}
	.st2{fill:#336666;}
	.st3{fill:none;stroke:#333366;stroke-width:3;}
	.st4{fill:none;stroke:#336666;stroke-width:3;}
</style>
<g class="st0">
	<path class="st1" d="M8.5,12.5c-2.2,0-4,1.8-4,4s1.8,4,4,4s4-1.8,4-4v-12H3.1h18"/>
	<path class="st2" d="M19.5,12.5h1c2.2,0,4,1.8,4,4v4h-4c-4.4,0-8-3.6-8-8s3.6-8,8-8h5.4"/>
</g>
<g>
	<path class="st3" d="M8.5,12.5c-2.2,0-4,1.8-4,4s1.8,4,4,4s4-1.8,4-4v-12H3.1h18"/>
	<path class="st4" d="M19.5,12.5h1c2.2,0,4,1.8,4,4v4h-4c-4.4,0-8-3.6-8-8s3.6-8,8-8h5.4"/>
</g>
</svg>
