<?xml version="1.0" encoding="utf-8"?>
<!-- Generator: Adobe Illustrator 23.0.6, SVG Export Plug-In . SVG Version: 6.00 Build 0)  -->
<svg version="1.1" xmlns="http://www.w3.org/2000/svg" xmlns:xlink="http://www.w3.org/1999/xlink" x="0px" y="0px"
	 viewBox="0 0 792 1224" style="enable-background:new 0 0 792 1224;" xml:space="preserve">
<style type="text/css">
	.st0{fill:#FFFFFF;stroke:#FFFFFF;stroke-width:8;stroke-linecap:round;stroke-linejoin:round;stroke-miterlimit:5;}
	.st1{fill:#FFFFFF;stroke:#FFFFFF;stroke-width:8;stroke-miterlimit:10;}
	.st2{fill:#C22778;stroke:#FFFFFF;stroke-width:4;stroke-linecap:round;stroke-linejoin:round;stroke-miterlimit:5;}
	.st3{fill:#1B1028;stroke:#FFFFFF;stroke-width:4;stroke-linecap:round;stroke-linejoin:round;stroke-miterlimit:5;}
	.st4{fill:#CBBA2D;stroke:#FFFFFF;stroke-width:4;stroke-linecap:round;stroke-linejoin:round;stroke-miterlimit:5;}
	.st5{fill:#FFFFFF;stroke:#FFFFFF;stroke-width:4;stroke-linecap:round;stroke-linejoin:round;stroke-miterlimit:5;}
	.st6{fill:#5F4A9B;}
	.st7{fill:#5F4A9B;stroke:#FFFFFF;stroke-width:4;stroke-linecap:round;stroke-linejoin:round;stroke-miterlimit:5;}
	.st8{fill:#663795;stroke:#FFFFFF;stroke-width:4;stroke-linecap:round;stroke-linejoin:round;stroke-miterlimit:5;}
	.st9{fill:#76489C;stroke:#FFFFFF;stroke-width:4;stroke-linecap:round;stroke-linejoin:round;stroke-miterlimit:5;}
	.st10{stroke:#FFFFFF;stroke-width:4;stroke-linecap:round;stroke-linejoin:round;stroke-miterlimit:5;}
	.st11{fill:#FFFFFF;}
	.st12{fill:#663795;}
	.st13{fill:#1B1028;}
	.st14{fill:none;stroke:#1B1028;stroke-miterlimit:10;}
	.st15{fill:none;}
</style>
<g id="pic">
	
</g>
<g id="bg">
	<rect width="792" height="1224"/>
</g>
<g id="shadow">
	<g>
		<path class="st0" d="M70.4,798.8c0,0-38.1-20.2,2.8-82.7s45.9-89.4,36.7-114.1c0,0,39.5,16.3,20.5,81.2c0,0,5.1-21.1,16.9-22.1
			c0,0,4.9,88.5-4.9,108.2c-9.9,19.8-25.4,78.4-25.4,78.4L70.4,798.8z"/>
		<polyline class="st0" points="233.5,414.4 251.1,395.2 301.2,468.1 263.1,510.6 		"/>
		<polyline class="st0" points="453.7,461.7 500.5,403 515.3,422.8 479.1,488.8 		"/>
		<path class="st0" d="M595.6,766.5c0,0,0.3-25.4-3.4-28.2l11.1,5.6c0,0,35.3-62,47.3-60.7c0,0-2.1,39.5,11.3,41.6
			c13.4,2.1,28.9,40.2,23.3,78.4c-5.6,38.1-72.7,24-72.7,24L595.6,766.5z"/>
		<path class="st0" d="M559.4,724.2c11.3-2.9,71.5,98.1,71.5,98.1c2.8-2.1,3.5-48.6,3.5-48.6c8.5,1.5,37.4,50,37.4,50
			c9.9-7.8,26.1-57.2,26.1-57.2c31.1,45.9,30.4,181.4-43.1,213.9c-73.4,32.5-119.3-165.9-117.7-174.4c1.6-8.5,61.1,24,61.1,24
			c-7.1-29.6-70.2-76.9-70.2-76.9s-10.2,104.5-152.1,148.9S191.1,720.6,191.1,720.6s-43.8,77.6-42.4,108.7c0,0,34.6-32.1,43.1-30.5
			c0,0-1.4,61.6-7.1,63.7c0,0,29.6-16.9,29.6-29.6c0,0,29.6,160.2-65.7,155.3c-95.3-4.9-76.9-224.8-76.9-224.8s38.1,38.4,43.1,63.1
			c0,0,16.9-180.9,79.1-197.7c0,0-15.5-176.7,30.4-228.1l56.2,83.5c0,0,17.2-25.2,58.1-22.5l61.4-93.8l36.1,93.8h42.4l64.2-67.9
			c0,0,40.2,166.1,4.2,251.8"/>
		<path class="st0" d="M387.1,481c-17.9,0-32.5,14.5-32.5,32.5c0,17.9,14.5,32.5,32.5,32.5c17.9,0,32.5-14.5,32.5-32.5
			C419.5,495.5,405,481,387.1,481z M387.1,525.1c-6.4,0-11.6-5.2-11.6-11.6c0-6.4,5.2-11.6,11.6-11.6s11.6,5.2,11.6,11.6
			C398.7,519.9,393.5,525.1,387.1,525.1z"/>
		<path class="st0" d="M294.2,525.1l65.6,60.4C359.8,585.5,259.6,609.8,294.2,525.1z"/>
		<path class="st0" d="M426.9,585.5l51.6-69.5C478.4,515.9,534.2,592.2,426.9,585.5z"/>
		<polygon class="st1" points="252.9,751.1 315.3,773.7 355.8,725.8 		"/>
		<path class="st0" d="M264.5,753.1c0,0,26.8,26.5,48.7,19.4"/>
		<path class="st0" d="M309.4,766.5l29.3,49.8c0,0,39.9-14.3,32.8-52.9c-7.1-38.5-39.9-26.2-39.9-26.2"/>
		<path class="st0" d="M267.4,748.2c0,0-13.1,24-10.2,39.2c0,0-9.4-7.6-9-10.1c0,0-4,7.9-1.5,11.6c0,0-7.9-7.1-7.5-9.5
			c0,0-4.7,7.2-3.6,10.6c0,0-49.3-78.7,12.8-65.5c0,0-20.2-0.2-17.6-17.4c0,0-15.1-3.6-21.4-9.6c-6.3-6-16.7-10.1-21.6-7.3
			s-15.3,3.8-15.3,3.8s10.1-10.6,15.5-10.8c0,0-10.8-5.6-12.7-5.4l20,0c0,0-10.8-11.1-10.1-13.6c0.7-2.6,45.2,11.8,45.2,11.8
			s-3.3-16.2,0-20.2l-28-82.1l74.4,46.8l3.8-20.5l9.9,12.2l16.9-36.7l19.8,36.2l16.7-12.2l2.4,22.1l56.7-42.6l-34.1,82.1
			c0,0,7.1,8.2,6.6,14.1c0,0,70.1-5.2,72.7-4.5c2.6,0.7-17.2,8-17.2,8s16.7,2,17.4,3.1c0.7,1.1-18.1,8.2-18.1,8.2s16.5,2.8,18.1,4.9
			c0,0-71.5,20.5-71.5,23.5s-6.6,22.1-14.9,24.1"/>
		<path class="st0" d="M336.1,650.3c2.7,3,9.7,12.4-1,23.5c-12.9,13.4-25.8,5.4-25.8,5.4l35.6-38.6"/>
		<path class="st0" d="M335.1,649.4"/>
		<path class="st0" d="M265.3,652.2c-1.3,3.7-8.6,25.9,8,29.4c18.1,3.8,24.5,0,24.5,0l-39.8-36"/>
		<path class="st0" d="M265.5,651.7"/>
		<path class="st0" d="M338.6,816.3c0,0-0.4-30,3.4-33.4c3.7-3.4,5.5,10.2,5.5,10.2s4.2-11.3,6-11.8s1.2,9.7,1.2,9.7
			s4.2-8.5,5.3-8.6c1.1-0.2,4.5,12.7,2.9,16.4"/>
		<path class="st0" d="M657.7,743.9c0,0-150-23.3-184.2-125.3l-19.8-30.7l28.2,6.4l-22.2-40.6l31.8,9.2l25.1-66l18.4,56.5
			c0,0,37.1-10.2,64.9,9.5l76.2-39.5l-28.6,68.1l32.5,12L627,626.8l32.5,13.9l-45.2,18.2C614.3,658.9,607.9,717.1,657.7,743.9z"/>
		<path class="st0" d="M500.5,724c0,0,0.7-46.7,49.4-47.9s11.3,75.8-8.1,80c0,0,8.5-32.7,6.4-36.4c-2.1-3.6-25.1,24.7-25.1,24.7
			s12.4-49.4,9.5-50.8C529.8,692.2,506.9,708.8,500.5,724z"/>
		<path class="st0" d="M458.3,666.6c0,0,4.2-14.5,9.9-14.5c5.6,0,13.1-7.5,9.2-11.5s-14.1-14.9-29.3-13.9
			c-15.2,1.1-30,16.2-29.3,26.1c0,0,12.4-10.2,14.8-9.9c0,0-6,16.1-3.5,18.1c0,0,15.5-20.6,20.8-18.8
			C450.9,642.3,449.8,664.2,458.3,666.6z"/>
		<path class="st0" d="M546.9,626.7l44.5-37.3C591.4,589.4,607.9,651.3,546.9,626.7z"/>
		<path class="st0" d="M531.4,624.3l-30.7-38.8C500.6,585.5,472.8,635.6,531.4,624.3z"/>
		<path class="st0" d="M535.1,387.8c-5.1-14.4,2.4-19.5,13.5-26.4c4.5-2.8,5.3-4.6,8.1-8.8c5.5-8.2,12.1-9,19.5-14.3
			c6.2-4.4,6-10.3,9.6-16c3.8-5.9,13.5-10.7,20.4-9.4c7.3,1.3,10,6.2,10.6,12.7c0.8,7.7,2.8,6.9,8.1,12.1c4.4,4.4,3.3,11.9,7.3,15.6
			c6.7,6.3,14.9,0.3,21.9-0.2c6.7-0.5,14.5,2.9,11.5,10.5c-1.2,3.2-5.3,4.1-6,7.7c-0.7,3.5,2.6,7.4,4.9,9.5
			c5.9,5.2,28.8,10.3,17.3,23.3c-4.8,5.4-14.4,4.2-19.2,10.6c-4,5.3-1.1,10.2-2.5,16c-2.5,10.7-11.3,11.1-20,12.8
			c-10.4,2.1-12.1,7.9-19.4,13.7c-5.8,4.7-32.5,8.1-32.5-3.8"/>
		<circle class="st0" cx="580.3" cy="408.2" r="46.1"/>
		<path class="st0" d="M570.6,413.1c0,0-28-17.9-20.2-45.2c0,0-34.8,33.6-17.4,57.4C550.4,449.1,570.6,413.1,570.6,413.1z"/>
		<path class="st0" d="M580.3,413.4l34.1-28.5c0,0,8.5,39.5-9.9,46.6C586.2,438.5,580.3,413.4,580.3,413.4z"/>
		<ellipse class="st1" cx="282.5" cy="674.3" rx="1.9" ry="4.2"/>
		<ellipse class="st1" cx="321.2" cy="673.1" rx="1.9" ry="4.2"/>
		<ellipse class="st1" cx="517.4" cy="618.2" rx="1.9" ry="4.2"/>
		<ellipse class="st1" cx="557.5" cy="624.6" rx="1.9" ry="4.2"/>
		<ellipse class="st1" cx="555.6" cy="417.2" rx="1.9" ry="4.2"/>
		<ellipse class="st1" cx="590.3" cy="418.6" rx="1.9" ry="4.2"/>
		<g>
			<ellipse class="st1" cx="448.5" cy="560.5" rx="5.8" ry="12.6"/>
			<ellipse class="st1" cx="448.5" cy="560.5" rx="8.7" ry="18.9"/>
		</g>
		<g>
			<ellipse class="st1" cx="328.9" cy="565.6" rx="5.8" ry="12.6"/>
			<ellipse class="st1" cx="328.9" cy="565.6" rx="8.7" ry="18.9"/>
		</g>
	</g>
</g>
<g id="mega_gengar">
	<path class="st2" d="M66.4,796.8c0,0-38.1-20.2,2.8-82.7s45.9-89.4,36.7-114.1c0,0,39.5,16.3,20.5,81.2c0,0,5.1-21.1,16.9-22.1
		c0,0,4.9,88.5-4.9,108.2c-9.9,19.8-25.4,78.4-25.4,78.4L66.4,796.8z"/>
	<polyline class="st2" points="229.5,412.4 247.1,393.2 297.2,466.1 259.1,508.6 	"/>
	<polyline class="st2" points="449.7,459.7 496.5,401 511.3,420.8 475.1,486.8 	"/>
	<path class="st2" d="M591.6,764.5c0,0,0.3-25.4-3.4-28.2l11.1,5.6c0,0,35.3-62,47.3-60.7c0,0-2.1,39.5,11.3,41.6
		c13.4,2.1,28.9,40.2,23.3,78.4c-5.6,38.1-72.7,24-72.7,24L591.6,764.5z"/>
	<path class="st3" d="M555.4,722.2c11.3-2.9,71.5,98.1,71.5,98.1c2.8-2.1,3.5-48.6,3.5-48.6c8.5,1.5,37.4,50,37.4,50
		c9.9-7.8,26.1-57.2,26.1-57.2c31.1,45.9,30.4,181.4-43.1,213.9S531.6,812.5,533.2,804.1c1.6-8.5,61.1,24,61.1,24
		c-7.1-29.6-70.2-76.9-70.2-76.9s-10.2,104.5-152.1,148.9S187.1,718.6,187.1,718.6s-43.8,77.6-42.4,108.7c0,0,34.6-32.1,43.1-30.5
		c0,0-1.4,61.6-7.1,63.7c0,0,29.6-16.9,29.6-29.6c0,0,29.6,160.2-65.7,155.3c-95.3-4.9-76.9-224.8-76.9-224.8s38.1,38.4,43.1,63.1
		c0,0,16.9-180.9,79.1-197.7c0,0-15.5-176.7,30.4-228.1l56.2,83.5c0,0,17.2-25.2,58.1-22.5l61.4-93.8l36.1,93.8h42.4l64.2-67.9
		c0,0,40.2,166.1,4.2,251.8"/>
	<path class="st4" d="M383.1,479c-17.9,0-32.5,14.5-32.5,32.5c0,17.9,14.5,32.5,32.5,32.5c17.9,0,32.5-14.5,32.5-32.5
		C415.5,493.5,401,479,383.1,479z M383.1,523.1c-6.4,0-11.6-5.2-11.6-11.6s5.2-11.6,11.6-11.6s11.6,5.2,11.6,11.6
		S389.5,523.1,383.1,523.1z"/>
	<path class="st5" d="M290.2,523.1l65.6,60.4C355.8,583.5,255.6,607.8,290.2,523.1z"/>
	<path class="st5" d="M422.9,583.5l51.6-69.5C474.4,513.9,530.2,590.2,422.9,583.5z"/>
	<polygon class="st6" points="248.9,749.1 311.3,771.7 351.8,723.8 	"/>
</g>
<g id="gengar">
	<path class="st7" d="M260.5,751.1c0,0,26.8,26.5,48.7,19.4"/>
	<path class="st7" d="M305.4,764.5l29.3,49.8c0,0,39.9-14.3,32.8-52.9c-7.1-38.5-39.9-26.2-39.9-26.2"/>
	<path class="st7" d="M263.4,746.2c0,0-13.1,24-10.2,39.2c0,0-9.4-7.6-9-10.1c0,0-4,7.9-1.5,11.6c0,0-7.9-7.1-7.5-9.5
		c0,0-4.7,7.2-3.6,10.6c0,0-49.3-78.7,12.8-65.5c0,0-20.2-0.2-17.6-17.4c0,0-15.1-3.6-21.4-9.6c-6.3-6-16.7-10.1-21.6-7.3
		c-4.9,2.8-15.3,3.8-15.3,3.8s10.1-10.6,15.5-10.8c0,0-10.8-5.6-12.7-5.4l20,0c0,0-10.8-11.1-10.1-13.6c0.7-2.6,45.2,11.8,45.2,11.8
		s-3.3-16.2,0-20.2l-28-82.1l74.4,46.8l3.8-20.5l9.9,12.2l16.9-36.7l19.8,36.2l16.7-12.2l2.4,22.1l56.7-42.6l-34.1,82.1
		c0,0,7.1,8.2,6.6,14.1c0,0,70.1-5.2,72.7-4.5c2.6,0.7-17.2,8-17.2,8s16.7,2,17.4,3.1c0.7,1.1-18.1,8.2-18.1,8.2s16.5,2.8,18.1,4.9
		c0,0-71.5,20.5-71.5,23.5s-6.6,22.1-14.9,24.1"/>
	<path class="st5" d="M332.1,648.3c2.7,3,9.7,12.4-1,23.5c-12.9,13.4-25.8,5.4-25.8,5.4l35.6-38.6"/>
	<path class="st7" d="M331.1,647.4"/>
	<path class="st5" d="M261.3,650.2c-1.3,3.7-8.6,25.9,8,29.4c18.1,3.8,24.5,0,24.5,0l-39.8-36"/>
	<path class="st7" d="M261.5,649.7"/>
	<path class="st7" d="M334.6,814.3c0,0-0.4-30,3.4-33.4c3.7-3.4,5.5,10.2,5.5,10.2s4.2-11.3,6-11.8c1.8-0.5,1.2,9.7,1.2,9.7
		s4.2-8.5,5.3-8.6c1.1-0.2,4.5,12.7,2.9,16.4"/>
</g>
<g id="haunter">
	<path class="st8" d="M653.7,741.9c0,0-150-23.3-184.2-125.3l-19.8-30.7l28.2,6.4l-22.2-40.6l31.8,9.2l25.1-66l18.4,56.5
		c0,0,37.1-10.2,64.9,9.5l76.2-39.5l-28.6,68.1l32.5,12L623,624.8l32.5,13.9l-45.2,18.2C610.3,656.9,603.9,715.1,653.7,741.9z"/>
	<path class="st8" d="M496.5,722c0,0,0.7-46.7,49.4-47.9s11.3,75.8-8.1,80c0,0,8.5-32.7,6.4-36.4c-2.1-3.6-25.1,24.7-25.1,24.7
		s12.4-49.4,9.5-50.8C525.8,690.2,502.9,706.8,496.5,722z"/>
	<path class="st8" d="M454.3,664.6c0,0,4.2-14.5,9.9-14.5c5.6,0,13.1-7.5,9.2-11.5s-14.1-14.9-29.3-13.9
		c-15.2,1.1-30,16.2-29.3,26.1c0,0,12.4-10.2,14.8-9.9c0,0-6,16.1-3.5,18.1c0,0,15.5-20.6,20.8-18.8
		C446.9,640.3,445.8,662.2,454.3,664.6z"/>
	<path class="st5" d="M542.9,624.7l44.5-37.3C587.4,587.4,603.9,649.3,542.9,624.7z"/>
	<path class="st5" d="M527.4,622.3l-30.7-38.8C496.6,583.5,468.8,633.6,527.4,622.3z"/>
</g>
<g id="gastly">
	<path class="st9" d="M531.1,385.8c-5.1-14.4,2.4-19.5,13.5-26.4c4.5-2.8,5.3-4.6,8.1-8.8c5.5-8.2,12.1-9,19.5-14.3
		c6.2-4.4,6-10.3,9.6-16c3.8-5.9,13.5-10.7,20.4-9.4c7.3,1.3,10,6.2,10.6,12.7c0.8,7.7,2.8,6.9,8.1,12.1c4.4,4.4,3.3,11.9,7.3,15.6
		c6.7,6.3,14.9,0.3,21.9-0.2c6.7-0.5,14.5,2.9,11.5,10.5c-1.2,3.2-5.3,4.1-6,7.7c-0.7,3.5,2.6,7.4,4.9,9.5
		c5.9,5.2,28.8,10.3,17.3,23.3c-4.8,5.4-14.4,4.2-19.2,10.6c-4,5.3-1.1,10.2-2.5,16c-2.5,10.7-11.3,11.1-20,12.8
		c-10.4,2.1-12.1,7.9-19.4,13.7c-5.8,4.7-32.5,8.1-32.5-3.8"/>
	<circle class="st10" cx="576.3" cy="406.2" r="46.1"/>
	<path class="st5" d="M566.6,411.1c0,0-28-17.9-20.2-45.2c0,0-34.8,33.6-17.4,57.4C546.4,447.1,566.6,411.1,566.6,411.1z"/>
	<path class="st5" d="M576.3,411.4l34.1-28.5c0,0,8.5,39.5-9.9,46.6C582.2,436.5,576.3,411.4,576.3,411.4z"/>
</g>
<g id="smile">
	<path class="st11" d="M242.5,939.3c0,0,132.7,92,245.5,0C488,939.3,403.3,1130.9,242.5,939.3z"/>
	<path class="st11" d="M448.3,892.3c0,0,29.4,20.4,54.3,0C502.6,892.3,483.8,934.7,448.3,892.3z"/>
	<path class="st11" d="M391.3,920.5c0,0,45.9,31.9,85,0C476.3,920.5,447,986.8,391.3,920.5z"/>
	<path class="st11" d="M269.2,924.8c0,0,58.4,40.5,108,0C377.2,924.8,339.9,1009.1,269.2,924.8z"/>
</g>
<g id="eyes">
	<ellipse class="st6" cx="278.5" cy="672.3" rx="1.9" ry="4.2"/>
	<ellipse class="st6" cx="317.2" cy="671.1" rx="1.9" ry="4.2"/>
	<ellipse class="st12" cx="513.4" cy="616.2" rx="1.9" ry="4.2"/>
	<ellipse class="st12" cx="553.5" cy="622.6" rx="1.9" ry="4.2"/>
	<ellipse cx="551.6" cy="415.2" rx="1.9" ry="4.2"/>
	<ellipse cx="586.3" cy="416.6" rx="1.9" ry="4.2"/>
	<g>
		<ellipse class="st13" cx="444.5" cy="558.5" rx="5.8" ry="12.6"/>
		<ellipse class="st14" cx="444.5" cy="558.5" rx="8.7" ry="18.9"/>
	</g>
	<g>
		<ellipse class="st13" cx="324.9" cy="563.6" rx="5.8" ry="12.6"/>
		<ellipse class="st14" cx="324.9" cy="563.6" rx="8.7" ry="18.9"/>
	</g>
</g>
<g id="txt">
	<g>
		<rect y="103" class="st15" width="792" height="167.4"/>
		<path class="st11" d="M224.4,168.1c2.3,5.2,5.1,9.3,8.5,12.4c3.4,3.1,6.6,4.7,9.6,4.7c1.6,0,3-0.6,4-1.7c1-1.1,1.5-2.6,1.5-4.4
			c0-1.7-0.4-3.2-1.1-4.4c-0.8-1.2-1.9-2.3-3.4-3.3l-7.8-4.9c-5.7-3.5-9.8-7.5-12.3-12.1c-2.6-4.6-3.8-10.2-3.8-16.9
			c0-24.3,11.7-36.4,35-36.4c10.5,0,20.3,2.4,29.3,7.3l-8.1,33.8c-2.4-5.1-5.3-9-8.4-11.8c-3.2-2.8-6.4-4.1-9.7-4.1
			c-1.7,0-3,0.5-4.1,1.5c-1,1-1.5,2.3-1.5,4c0,2.2,0.7,3.9,2,5.2c1.3,1.3,4.5,3.4,9.5,6.3c5.2,2.9,9.2,5.7,12.1,8.3
			c2.9,2.6,5.1,5.9,6.8,9.9c1.7,4,2.5,8.7,2.5,14.2c0,24.1-11.7,36.2-35.2,36.2c-12,0-23.1-2.6-33.3-7.9L224.4,168.1z"/>
		<path class="st11" d="M326.2,210.3h-32.3V103h31.3l13.1,22.4l13.1-22.4H383v107.3h-32.3v-53.7l-12.4,20.7l-12.1-20.7V210.3z"/>
		<path class="st11" d="M430.3,210.3h-32.3V103h32.3V210.3z"/>
		<path class="st11" d="M505.6,210.3h-60.7V103h32.3v80.4h28.4V210.3z"/>
		<path class="st11" d="M545.7,183.4H574v26.9h-60.5V103H574v26.9h-28.3v13.3h19.8v26.9h-19.8V183.4z"/>
	</g>
	<g>
		<rect x="2.7" y="1088.6" class="st15" width="792" height="132.3"/>
		<path class="st11" d="M118.6,1118.8v23.4h-16.1v-23.4l-13.9-30.2h16.3l5.6,12.2l5.6-12.2h16.3L118.6,1118.8z"/>
		<path class="st11" d="M148.5,1087.7c4.8,0,9,2.7,12.7,8.1c3.6,5.4,5.4,11.8,5.4,19.2c0,8.4-1.8,15.1-5.3,20.3
			c-3.6,5.2-8.1,7.8-13.7,7.8c-4.8,0-9-2.5-12.7-7.6c-3.7-5-5.6-12.1-5.6-21.2c0-4.4,0.8-8.7,2.4-12.8c1.6-4.1,3.8-7.4,6.6-10
			C141.1,1089,144.5,1087.7,148.5,1087.7z M147.9,1108.3c-1,0-1.9,0.5-2.6,1.6c-0.7,1.1-1.1,2.4-1.1,4c0,1.6,0.4,3,1.1,4
			s1.6,1.6,2.6,1.6c1.1,0,2-0.5,2.7-1.6c0.7-1,1.1-2.4,1.1-4.1c0-1.6-0.4-3-1.1-4C149.9,1108.9,149,1108.3,147.9,1108.3z"/>
		<path class="st11" d="M192,1088.6h16.1v20c0,5.8-0.1,10-0.4,12.6s-0.8,5.3-1.8,8.2s-2.2,5.3-3.9,7.3c-1.6,2-3.5,3.6-5.6,4.7
			c-2.1,1.1-4.2,1.7-6.4,1.7c-2.8,0-5.5-0.9-8.1-2.6c-2.6-1.7-4.7-4.1-6.2-7c-1.5-2.9-2.5-6.1-3.1-9.5c-0.5-3.4-0.8-8.5-0.8-15.3
			v-20.1H188v24.9c0,2.2,0.1,3.7,0.4,4.7c0.3,0.9,0.8,1.4,1.5,1.4c0.9,0,1.4-0.5,1.7-1.6s0.4-3.3,0.4-6.7V1088.6z"/>
		<path class="st11" d="M216.4,1120.7l-0.5-0.5c2.3-2,3.6-5,3.8-9c-4.3-1.9-6.4-5.6-6.4-11.3c0-3.4,0.8-6.3,2.4-8.7
			c1.6-2.4,3.5-3.6,5.7-3.6c2.4,0,4.3,1.2,5.7,3.6c1.4,2.4,2.2,5.7,2.2,9.8c0,4.3-1.2,8.4-3.7,12.3
			C223.1,1117.3,220.1,1119.7,216.4,1120.7z"/>
		<path class="st11" d="M234.6,1142.3v-53.6h16.1c5.6,0,9.4,0.2,11.3,0.6c1.9,0.4,3.6,1.2,5,2.5c1.4,1.3,2.5,3.1,3.4,5.4
			c0.9,2.3,1.3,4.7,1.3,7.3c0,5.4-1.4,9.4-4.1,12.2c4,6.6,6.3,15.1,7.1,25.7h-16.8v-0.5c0-6.3-0.6-11.1-1.8-14.4s-2.9-5-5.1-5h-0.2
			v19.9H234.6z M251,1099.6h-0.3v10.3h0.4c1.6,0,2.7-0.4,3.4-1.3s1.1-2.2,1.1-4C255.7,1101.3,254.1,1099.6,251,1099.6z"/>
		<path class="st11" d="M294.6,1128.8h14.1v13.5h-30.3v-53.6h30.3v13.5h-14.1v6.6h9.9v13.5h-9.9V1128.8z"/>
		<path class="st11" d="M355.6,1087.7c4.8,0,9,2.7,12.7,8.1c3.6,5.4,5.4,11.8,5.4,19.2c0,8.4-1.8,15.1-5.3,20.3
			c-3.6,5.2-8.1,7.8-13.7,7.8c-4.8,0-9-2.5-12.7-7.6c-3.7-5-5.6-12.1-5.6-21.2c0-4.4,0.8-8.7,2.4-12.8c1.6-4.1,3.8-7.4,6.6-10
			C348.1,1089,351.6,1087.7,355.6,1087.7z M354.9,1108.3c-1,0-1.9,0.5-2.6,1.6c-0.7,1.1-1.1,2.4-1.1,4c0,1.6,0.4,3,1.1,4
			s1.6,1.6,2.6,1.6c1.1,0,2-0.5,2.7-1.6c0.7-1,1.1-2.4,1.1-4.1c0-1.6-0.4-3-1.1-4C356.9,1108.9,356,1108.3,354.9,1108.3z"/>
		<path class="st11" d="M395.6,1126v16.3h-16.1v-53.6H391l8.6,17.9v-17.9h16.1v54h-12.3L395.6,1126z"/>
		<path class="st11" d="M474.1,1117.3l6.8,20.3c-1.4,1.3-3.5,2.6-6.2,3.7s-5.7,1.7-8.9,1.7c-5.7,0-10.5-2.6-14.3-7.7
			c-3.8-5.1-5.7-11.7-5.7-19.7c0-8.1,1.9-14.8,5.7-20.1c3.8-5.3,8.7-7.9,14.5-7.9c2.6,0,5.2,0.5,7.9,1.5c2.7,1,5,2.4,6.9,4.2
			l-6.8,18.9c-1.9-1-4-1.5-6.6-1.5c-3.4,0-5.2,1.3-5.2,4c0,1.3,0.5,2.3,1.4,3.1s2.2,1.2,3.8,1.2
			C470.1,1119.2,472.3,1118.5,474.1,1117.3z"/>
		<path class="st11" d="M499.7,1133.1l-2.1,9.1h-16.3l13-53.6h23l12.4,53.6h-16.2l-2.1-9.1H499.7z M502.6,1120.5h6l-3-13.1
			L502.6,1120.5z"/>
		<path class="st11" d="M549.3,1142.3h-16.1v-53.6h15.6l6.5,11.2l6.6-11.2h15.8v53.6h-16.1v-26.9l-6.2,10.4l-6-10.4V1142.3z"/>
		<path class="st11" d="M601.3,1128.8h14.1v13.5h-30.3v-53.6h30.3v13.5h-14.1v6.6h9.9v13.5h-9.9V1128.8z"/>
		<path class="st11" d="M620.4,1142.3v-53.6h16.1c5.6,0,9.4,0.2,11.3,0.6c1.9,0.4,3.6,1.2,5,2.5c1.4,1.3,2.5,3.1,3.4,5.4
			s1.3,4.7,1.3,7.3c0,5.4-1.4,9.4-4.1,12.2c4,6.6,6.3,15.1,7.1,25.7h-16.8v-0.5c0-6.3-0.6-11.1-1.8-14.4s-2.9-5-5.1-5h-0.2v19.9
			H620.4z M636.8,1099.6h-0.3v10.3h0.4c1.6,0,2.7-0.4,3.4-1.3s1.1-2.2,1.1-4C641.4,1101.3,639.9,1099.6,636.8,1099.6z"/>
		<path class="st11" d="M679.2,1133.1l-2.1,9.1h-16.3l13-53.6h23l12.4,53.6H693l-2.1-9.1H679.2z M682.1,1120.5h6l-3-13.1
			L682.1,1120.5z"/>
	</g>
	<g>
	</g>
	<g>
	</g>
	<g>
	</g>
	<g>
	</g>
	<g>
	</g>
	<g>
	</g>
</g>
</svg>
