<?xml version="1.0" encoding="utf-8"?>
<!-- Generator: Adobe Illustrator 23.0.6, SVG Export Plug-In . SVG Version: 6.00 Build 0)  -->
<svg version="1.1" xmlns="http://www.w3.org/2000/svg" xmlns:xlink="http://www.w3.org/1999/xlink" x="0px" y="0px"
	 viewBox="0 0 288 288" style="enable-background:new 0 0 288 288;" xml:space="preserve">
<style type="text/css">
	.st0{fill:#76489C;stroke:#FFFFFF;stroke-width:4;stroke-linecap:round;stroke-linejoin:round;stroke-miterlimit:5;}
	.st1{stroke:#FFFFFF;stroke-width:4;stroke-linecap:round;stroke-linejoin:round;stroke-miterlimit:5;}
	.st2{fill:#FFFFFF;stroke:#FFFFFF;stroke-width:4;stroke-linecap:round;stroke-linejoin:round;stroke-miterlimit:5;}
	.st3{opacity:0;}
	.st4{fill:#1B1028;}
	.st5{fill:none;stroke:#1B1028;stroke-miterlimit:10;}
</style>
<g id="bg">
	<rect width="288" height="288"/>
</g>
<g id="eyes">
	<g>
		<path class="st0" d="M77.6,131.4C72.5,117,80,111.9,91.1,105c4.5-2.8,5.3-4.6,8.1-8.8c5.5-8.2,12.1-9,19.5-14.3
			c6.2-4.4,6-10.3,9.6-16c3.8-5.9,13.5-10.7,20.4-9.4c7.3,1.3,10,6.2,10.6,12.7c0.8,7.7,2.8,6.9,8.1,12.1c4.4,4.4,3.3,11.9,7.3,15.6
			c6.7,6.3,14.9,0.3,21.9-0.2c6.7-0.5,14.5,2.9,11.5,10.5c-1.2,3.2-5.3,4.1-6,7.7c-0.7,3.5,2.6,7.4,4.9,9.5
			c5.9,5.2,28.8,10.3,17.3,23.3c-4.8,5.4-14.4,4.2-19.2,10.6c-4,5.3-1.1,10.2-2.5,16c-2.5,10.7-11.3,11.1-20,12.8
			c-10.4,2.1-12.1,7.9-19.4,13.7c-5.8,4.7-32.5,8.1-32.5-3.8"/>
		<circle class="st1" cx="122.8" cy="151.7" r="46.1"/>
		<path class="st2" d="M113.1,156.7c0,0-28-17.9-20.2-45.2c0,0-34.8,33.6-17.4,57.4S113.1,156.7,113.1,156.7z"/>
		<path class="st2" d="M122.8,156.9l34.1-28.5c0,0,8.5,39.5-9.9,46.6C128.7,182.1,122.8,156.9,122.8,156.9z"/>
		<ellipse cx="98.1" cy="160.7" rx="1.9" ry="4.2"/>
		<ellipse cx="132.8" cy="162.1" rx="1.9" ry="4.2"/>
	</g>
	<g class="st3">
		<ellipse class="st4" cx="272.4" cy="156.6" rx="5.8" ry="12.6"/>
		<ellipse class="st5" cx="272.4" cy="156.6" rx="8.7" ry="18.9"/>
	</g>
	<g class="st3">
		<ellipse class="st4" cx="152.7" cy="161.7" rx="5.8" ry="12.6"/>
		<ellipse class="st5" cx="152.7" cy="161.7" rx="8.7" ry="18.9"/>
	</g>
	<g>
	</g>
	<g>
	</g>
	<g>
	</g>
	<g>
	</g>
	<g>
	</g>
	<g>
	</g>
</g>
</svg>
