<svg xmlns="http://www.w3.org/2000/svg" xmlns:xlink="http://www.w3.org/1999/xlink" x="0" y="0" version="1.1" viewBox="0 0 720 576" xml:space="preserve" style="enable-background:new 0 0 720 576"><style type="text/css">.st0{display:none}.st1{display:inline}.st2,.st3{fill:#fff;stroke-width:8}.st2,.st3,.st4{stroke:#fff}.st2{stroke-linecap:round;stroke-linejoin:round;stroke-miterlimit:5}.st3{stroke-miterlimit:10}.st4{fill:#c22778;stroke-width:4;stroke-linecap:round;stroke-linejoin:round;stroke-miterlimit:5}.st4,.st5,.st6{display:inline}.st5{fill:#1b1028;stroke:#fff;stroke-width:4;stroke-linecap:round;stroke-linejoin:round;stroke-miterlimit:5}.st6{fill:#cbba2d}.st6,.st7{stroke:#fff;stroke-width:4;stroke-linecap:round;stroke-linejoin:round;stroke-miterlimit:5}.st7,.st8{display:inline;fill:#fff}.st10,.st9{stroke:#fff;stroke-width:4;stroke-linecap:round;stroke-linejoin:round;stroke-miterlimit:5}.st9{fill:#663795}.st10{fill:#fff}.st11{fill:#663795}.st12{fill:#76489c}.st12,.st13{stroke:#fff;stroke-width:4;stroke-linecap:round;stroke-linejoin:round;stroke-miterlimit:5}.st14{opacity:0}.st15{fill:#1b1028}.st16{fill:none;stroke:#1b1028;stroke-miterlimit:10}.st17,.st18{fill:#5f4a9b}.st18{stroke:#fff;stroke-width:4;stroke-linecap:round;stroke-linejoin:round;stroke-miterlimit:5}.st19{fill:none}.st20{fill:#fff}</style><g id="bg"><rect width="720" height="576"/></g><g id="shadow" class="st0"><g class="st1"><path d="M30.6,426c0,0-38.1-20.2,2.8-82.7s45.9-89.4,36.7-114.1c0,0,39.5,16.3,20.5,81.2c0,0,5.1-21.1,16.9-22.1 c0,0,4.9,88.5-4.9,108.2s-25.4,78.4-25.4,78.4L30.6,426z" class="st2"/><polyline points="193.7 41.6 211.3 22.4 261.4 95.3 223.3 137.8" class="st2"/><polyline points="413.9 88.9 460.7 30.2 475.5 49.9 439.3 115.9" class="st2"/><path d="M555.8,393.7c0,0,0.3-25.4-3.4-28.2l11.1,5.6c0,0,35.3-62,47.3-60.7c0,0-2.1,39.5,11.3,41.6 c13.4,2.1,28.9,40.2,23.3,78.4s-72.7,24-72.7,24L555.8,393.7z" class="st2"/><path d="M519.6,351.3c11.3-2.9,71.5,98.1,71.5,98.1c2.8-2.1,3.5-48.6,3.5-48.6c8.5,1.5,37.4,50,37.4,50 c9.9-7.8,26.1-57.2,26.1-57.2c31.1,45.9,30.4,181.4-43.1,213.9S495.8,441.7,497.4,433.2c1.6-8.5,61.1,24,61.1,24 c-7.1-29.6-70.2-76.9-70.2-76.9s-10.2,104.5-152.1,148.9S151.3,347.8,151.3,347.8s-43.8,77.6-42.4,108.7c0,0,34.6-32.1,43.1-30.5 c0,0-1.4,61.6-7.1,63.7c0,0,29.6-16.9,29.6-29.6c0,0,29.6,160.2-65.7,155.3S32,390.6,32,390.6s38.1,38.4,43.1,63.1 c0,0,16.9-180.9,79.1-197.7c0,0-15.5-176.7,30.4-228.1l56.2,83.5c0,0,17.2-25.2,58.1-22.5l61.4-93.8l36.1,93.8h42.4L502.8,21 c0,0,40.2,166.1,4.2,251.8" class="st2"/><path d="M347.2,108.2c-17.9,0-32.5,14.5-32.5,32.5c0,17.9,14.5,32.5,32.5,32.5c17.9,0,32.5-14.5,32.5-32.5 C379.7,122.7,365.2,108.2,347.2,108.2z M347.2,152.3c-6.4,0-11.6-5.2-11.6-11.6s5.2-11.6,11.6-11.6s11.6,5.2,11.6,11.6 S353.7,152.3,347.2,152.3z" class="st2"/><path d="M254.4,152.3l65.6,60.4C320,212.6,219.8,237,254.4,152.3z" class="st2"/><path d="M387.1,212.6l51.6-69.5C438.6,143.1,494.4,219.3,387.1,212.6z" class="st2"/><polygon points="213.1 378.3 275.5 400.9 315.9 352.9" class="st3"/><path d="M224.7,380.3c0,0,26.8,26.5,48.7,19.4" class="st2"/><path d="M269.5,393.7l29.3,49.8c0,0,39.9-14.3,32.8-52.9c-7.1-38.5-39.9-26.2-39.9-26.2" class="st2"/><path d="M227.5,375.3c0,0-13.1,24-10.2,39.2c0,0-9.4-7.6-9-10.1c0,0-4,7.9-1.5,11.6c0,0-7.9-7.1-7.5-9.5 c0,0-4.7,7.2-3.6,10.6c0,0-49.3-78.7,12.8-65.5c0,0-20.2-0.2-17.6-17.4c0,0-15.1-3.6-21.4-9.6c-6.3-6-16.7-10.1-21.6-7.3 c-4.9,2.8-15.3,3.8-15.3,3.8s10.1-10.6,15.5-10.8c0,0-10.8-5.6-12.7-5.4l20,0c0,0-10.8-11.1-10.1-13.6 c0.7-2.6,45.2,11.8,45.2,11.8s-3.3-16.2,0-20.2l-28-82.1l74.4,46.8l3.8-20.5l9.9,12.2l16.9-36.7l19.8,36.2l16.7-12.2l2.4,22.1 l56.7-42.6l-34.1,82.1c0,0,7.1,8.2,6.6,14.1c0,0,70.1-5.2,72.7-4.5c2.6,0.7-17.2,8-17.2,8s16.7,2,17.4,3.1s-18.1,8.2-18.1,8.2 s16.5,2.8,18.1,4.9c0,0-71.5,20.5-71.5,23.5c0,3.1-6.6,22.1-14.9,24.1" class="st2"/><path d="M296.3,277.5c2.7,3,9.7,12.4-1,23.5c-12.9,13.4-25.8,5.4-25.8,5.4l35.6-38.6" class="st2"/><path d="M295.3,276.5" class="st2"/><path d="M225.5,279.4c-1.3,3.7-8.6,25.9,8,29.4c18.1,3.8,24.5,0,24.5,0l-39.8-36" class="st2"/><path d="M225.7,278.9" class="st2"/><path d="M298.8,443.5c0,0-0.4-30,3.4-33.4c3.7-3.4,5.5,10.2,5.5,10.2s4.2-11.3,6-11.8c1.8-0.5,1.2,9.7,1.2,9.7 s4.2-8.5,5.3-8.6c1.1-0.2,4.5,12.7,2.9,16.4" class="st2"/><path d="M617.9,371.1c0,0-150-23.3-184.2-125.3l-19.8-30.7l28.2,6.4l-22.2-40.6l31.8,9.2l25.1-66l18.4,56.5 c0,0,37.1-10.2,64.9,9.5l76.2-39.5l-28.6,68.1l32.5,12l-52.9,23.3l32.5,13.9l-45.2,18.2C574.5,286.1,568.1,344.3,617.9,371.1z" class="st2"/><path d="M460.7,351.2c0,0,0.7-46.7,49.4-47.9c48.7-1.2,11.3,75.8-8.1,80c0,0,8.5-32.7,6.4-36.4s-25.1,24.7-25.1,24.7 s12.4-49.4,9.5-50.8C490,319.4,467.1,336,460.7,351.2z" class="st2"/><path d="M418.5,293.8c0,0,4.2-14.5,9.9-14.5s13.1-7.5,9.2-11.5s-14.1-14.9-29.3-13.9c-15.2,1.1-30,16.2-29.3,26.1 c0,0,12.4-10.2,14.8-9.9c0,0-6,16.1-3.5,18.1c0,0,15.5-20.6,20.8-18.8C411.1,269.5,410,291.3,418.5,293.8z" class="st2"/><path d="M507.1,253.9l44.5-37.3C551.5,216.5,568.1,278.5,507.1,253.9z" class="st2"/><path d="M491.5,251.5l-30.7-38.8C460.8,212.6,432.9,262.8,491.5,251.5z" class="st2"/><path d="M495.3,15c-5.1-14.4,2.4-19.5,13.5-26.4c4.5-2.8,5.3-4.6,8.1-8.8c5.5-8.2,12.1-9,19.5-14.3 c6.2-4.4,6-10.3,9.6-16c3.8-5.9,13.5-10.7,20.4-9.4c7.3,1.3,10,6.2,10.6,12.7c0.8,7.7,2.8,6.9,8.1,12.1c4.4,4.4,3.3,11.9,7.3,15.6 c6.7,6.3,14.9,0.3,21.9-0.2C621.1-20,628.9-16.6,626-9c-1.2,3.2-5.3,4.1-6,7.7c-0.7,3.5,2.6,7.4,4.9,9.5 c5.9,5.2,28.8,10.3,17.3,23.3c-4.8,5.4-14.4,4.2-19.2,10.6c-4,5.3-1.1,10.2-2.5,16c-2.5,10.7-11.3,11.1-20,12.8 c-10.4,2.1-12.1,7.9-19.4,13.7c-5.8,4.7-32.5,8.1-32.5-3.8" class="st2"/><circle cx="540.5" cy="35.3" r="46.1" class="st2"/><path d="M530.8,40.3c0,0-28-17.9-20.2-45.2c0,0-34.8,33.6-17.4,57.4S530.8,40.3,530.8,40.3z" class="st2"/><path d="M540.5,40.5l34.1-28.5c0,0,8.5,39.5-9.9,46.6S540.5,40.5,540.5,40.5z" class="st2"/><ellipse cx="242.7" cy="301.4" class="st3" rx="1.9" ry="4.2"/><ellipse cx="281.4" cy="300.3" class="st3" rx="1.9" ry="4.2"/><ellipse cx="477.6" cy="245.4" class="st3" rx="1.9" ry="4.2"/><ellipse cx="517.7" cy="251.8" class="st3" rx="1.9" ry="4.2"/><ellipse cx="515.8" cy="44.3" class="st3" rx="1.9" ry="4.2"/><ellipse cx="550.5" cy="45.7" class="st3" rx="1.9" ry="4.2"/><g><ellipse cx="408.7" cy="187.7" class="st3" rx="5.8" ry="12.6"/><ellipse cx="408.7" cy="187.7" class="st3" rx="8.7" ry="18.9"/></g><g><ellipse cx="289" cy="192.8" class="st3" rx="5.8" ry="12.6"/><ellipse cx="289" cy="192.8" class="st3" rx="8.7" ry="18.9"/></g></g></g><g id="mega_gengar" class="st0"><path d="M26.6,424c0,0-38.1-20.2,2.8-82.7s45.9-89.4,36.7-114.1c0,0,39.5,16.3,20.5,81.2c0,0,5.1-21.1,16.9-22.1 c0,0,4.9,88.5-4.9,108.2s-25.4,78.4-25.4,78.4L26.6,424z" class="st4"/><polyline points="189.7 39.6 207.3 20.4 257.4 93.3 219.3 135.8" class="st4"/><polyline points="409.9 86.9 456.7 28.2 471.5 47.9 435.3 113.9" class="st4"/><path d="M551.8,391.7c0,0,0.3-25.4-3.4-28.2l11.1,5.6c0,0,35.3-62,47.3-60.7c0,0-2.1,39.5,11.3,41.6 c13.4,2.1,28.9,40.2,23.3,78.4c-5.6,38.1-72.7,24-72.7,24L551.8,391.7z" class="st4"/><path d="M515.6,349.3c11.3-2.9,71.5,98.1,71.5,98.1c2.8-2.1,3.5-48.6,3.5-48.6c8.5,1.5,37.4,50,37.4,50 c9.9-7.8,26.1-57.2,26.1-57.2c31.1,45.9,30.4,181.4-43.1,213.9c-73.4,32.5-119.3-165.9-117.7-174.4c1.6-8.5,61.1,24,61.1,24 c-7.1-29.6-70.2-76.9-70.2-76.9s-10.2,104.5-152.1,148.9S147.3,345.8,147.3,345.8s-43.8,77.6-42.4,108.7c0,0,34.6-32.1,43.1-30.5 c0,0-1.4,61.6-7.1,63.7c0,0,29.6-16.9,29.6-29.6c0,0,29.6,160.2-65.7,155.3C9.7,608.4,28,388.6,28,388.6s38.1,38.4,43.1,63.1 c0,0,16.9-180.9,79.1-197.7c0,0-15.5-176.7,30.4-228.1l56.2,83.5c0,0,17.2-25.2,58.1-22.5l61.4-93.8l36.1,93.8h42.4L498.8,19 c0,0,40.2,166.1,4.2,251.8" class="st5"/><path d="M343.2,106.2c-17.9,0-32.5,14.5-32.5,32.5c0,17.9,14.5,32.5,32.5,32.5c17.9,0,32.5-14.5,32.5-32.5 C375.7,120.7,361.2,106.2,343.2,106.2z M343.2,150.3c-6.4,0-11.6-5.2-11.6-11.6s5.2-11.6,11.6-11.6s11.6,5.2,11.6,11.6 S349.7,150.3,343.2,150.3z" class="st6"/><path d="M250.4,150.3l65.6,60.4C316,210.6,215.8,235,250.4,150.3z" class="st7"/><path d="M383.1,210.6l51.6-69.5C434.6,141.1,490.4,217.3,383.1,210.6z" class="st7"/></g><g id="smile" class="st0"><path d="M202.7,566.4c0,0,132.7,92,245.5,0C448.2,566.4,363.5,758.1,202.7,566.4z" class="st8"/><path d="M408.5,519.5c0,0,29.4,20.4,54.3,0C462.8,519.5,444,561.9,408.5,519.5z" class="st8"/><path d="M351.5,547.7c0,0,45.9,31.9,85,0C436.5,547.7,407.1,614,351.5,547.7z" class="st8"/><path d="M229.4,551.9c0,0,58.4,40.5,108,0C337.3,551.9,300.1,636.2,229.4,551.9z" class="st8"/></g><g id="eyes"><g><path d="M589,379.1c0,0-150-23.3-184.2-125.3L385,223.1l28.2,6.4L391,188.9l31.8,9.2l25.1-66l18.4,56.5 c0,0,37.1-10.2,64.9,9.5l76.2-39.5l-28.6,68.1l32.5,12l-52.9,23.3l32.5,13.9l-45.2,18.2C545.6,294.1,539.2,352.3,589,379.1z" class="st9"/><path d="M431.8,359.2c0,0,0.7-46.7,49.4-47.9c48.7-1.2,11.3,75.8-8.1,80c0,0,8.5-32.7,6.4-36.4s-25.1,24.7-25.1,24.7 s12.4-49.4,9.5-50.8C461.1,327.4,438.2,344,431.8,359.2z" class="st9"/><path d="M389.6,301.8c0,0,4.2-14.5,9.9-14.5c5.6,0,13.1-7.5,9.2-11.5s-14.1-14.9-29.3-13.9 c-15.2,1.1-30,16.2-29.3,26.1c0,0,12.4-10.2,14.8-9.9c0,0-6,16.1-3.5,18.1c0,0,15.5-20.6,20.8-18.8 C382.2,277.5,381.1,299.4,389.6,301.8z" class="st9"/><path d="M478.2,261.9l44.5-37.3C522.7,224.5,539.2,286.5,478.2,261.9z" class="st10"/><path d="M462.7,259.5l-30.7-38.8C431.9,220.6,404.1,270.8,462.7,259.5z" class="st10"/><ellipse cx="448.7" cy="253.4" class="st11" rx="1.9" ry="4.2"/><ellipse cx="488.8" cy="259.8" class="st11" rx="1.9" ry="4.2"/></g><g><path d="M209.9,160.5c-5.1-14.4,2.4-19.5,13.5-26.4c4.5-2.8,5.3-4.6,8.1-8.8c5.5-8.2,12.1-9,19.5-14.3 c6.2-4.4,6-10.3,9.6-16c3.8-5.9,13.5-10.7,20.4-9.4c7.3,1.3,10,6.2,10.6,12.7c0.8,7.7,2.8,6.9,8.1,12.1c4.4,4.4,3.3,11.9,7.3,15.6 c6.7,6.3,14.9,0.3,21.9-0.2c6.7-0.5,14.5,2.9,11.5,10.5c-1.2,3.2-5.3,4.1-6,7.7c-0.7,3.5,2.6,7.4,4.9,9.5 c5.9,5.2,28.8,10.3,17.3,23.3c-4.8,5.4-14.4,4.2-19.2,10.6c-4,5.3-1.1,10.2-2.5,16c-2.5,10.7-11.3,11.1-20,12.8 c-10.4,2.1-12.1,7.9-19.4,13.7c-5.8,4.7-32.5,8.1-32.5-3.8" class="st12"/><circle cx="255.1" cy="180.8" r="46.1" class="st13"/><path d="M245.4,185.8c0,0-28-17.9-20.2-45.2c0,0-34.8,33.6-17.4,57.4S245.4,185.8,245.4,185.8z" class="st10"/><path d="M255.1,186l34.1-28.5c0,0,8.5,39.5-9.9,46.6S255.1,186,255.1,186z" class="st10"/><ellipse cx="230.4" cy="189.8" rx="1.9" ry="4.2"/><ellipse cx="265.1" cy="191.2" rx="1.9" ry="4.2"/></g><g class="st14"><ellipse cx="404.7" cy="185.7" class="st15" rx="5.8" ry="12.6"/><ellipse cx="404.7" cy="185.7" class="st16" rx="8.7" ry="18.9"/></g><g><polygon points="181.3 434.3 243.7 456.9 284.1 409" class="st17"/><path d="M192.9,436.3c0,0,26.8,26.5,48.7,19.4" class="st18"/><path d="M237.7,449.7l29.3,49.8c0,0,39.9-14.3,32.8-52.9c-7.1-38.5-39.9-26.2-39.9-26.2" class="st18"/><path d="M195.7,431.4c0,0-13.1,24-10.2,39.2c0,0-9.4-7.6-9-10.1c0,0-4,7.9-1.5,11.6c0,0-7.9-7.1-7.5-9.5 c0,0-4.7,7.2-3.6,10.6c0,0-49.3-78.7,12.8-65.5c0,0-20.2-0.2-17.6-17.4c0,0-15.1-3.6-21.4-9.6s-16.7-10.1-21.6-7.3 c-4.9,2.8-15.3,3.8-15.3,3.8s10.1-10.6,15.5-10.8c0,0-10.8-5.6-12.7-5.4l20,0c0,0-10.8-11.1-10.1-13.6 c0.7-2.6,45.2,11.8,45.2,11.8s-3.3-16.2,0-20.2l-28-82.1l74.4,46.8l3.8-20.5l9.9,12.2l16.9-36.7l19.8,36.2l16.7-12.2l2.4,22.1 L331,262l-34.1,82.1c0,0,7.1,8.2,6.6,14.1c0,0,70.1-5.2,72.7-4.5c2.6,0.7-17.2,8-17.2,8s16.7,2,17.4,3.1s-18.1,8.2-18.1,8.2 s16.5,2.8,18.1,4.9c0,0-71.5,20.5-71.5,23.5c0,3.1-6.6,22.1-14.9,24.1" class="st18"/><path d="M264.4,333.5c2.7,3,9.7,12.4-1,23.5c-12.9,13.4-25.8,5.4-25.8,5.4l35.6-38.6" class="st10"/><path d="M263.4,332.6" class="st18"/><path d="M193.6,335.4c-1.3,3.7-8.6,25.9,8,29.4c18.1,3.8,24.5,0,24.5,0l-39.8-36" class="st10"/><path d="M193.8,334.9" class="st18"/><path d="M267,499.5c0,0-0.4-30,3.4-33.4s5.5,10.2,5.5,10.2s4.2-11.3,6-11.8s1.2,9.7,1.2,9.7s4.2-8.5,5.3-8.6 c1.1-0.2,4.5,12.7,2.9,16.4" class="st18"/><ellipse cx="210.8" cy="357.5" class="st17" rx="1.9" ry="4.2"/><ellipse cx="249.5" cy="356.3" class="st17" rx="1.9" ry="4.2"/></g><g class="st14"><ellipse cx="285" cy="190.8" class="st15" rx="5.8" ry="12.6"/><ellipse cx="285" cy="190.8" class="st16" rx="8.7" ry="18.9"/></g></g><g id="txt" class="st0"><g class="st1"><rect width="792" height="167.4" x="-39.8" y="-269.8" class="st19"/><path d="M184.6-204.7c2.3,5.2,5.1,9.3,8.5,12.4c3.4,3.1,6.6,4.7,9.6,4.7c1.6,0,3-0.6,4-1.7c1-1.1,1.5-2.6,1.5-4.4 c0-1.7-0.4-3.2-1.1-4.4c-0.8-1.2-1.9-2.3-3.4-3.3l-7.8-4.9c-5.7-3.5-9.8-7.5-12.3-12.1c-2.6-4.6-3.8-10.2-3.8-16.9 c0-24.3,11.7-36.4,35-36.4c10.5,0,20.3,2.4,29.3,7.3l-8.1,33.8c-2.4-5.1-5.3-9-8.4-11.8c-3.2-2.8-6.4-4.1-9.7-4.1 c-1.7,0-3,0.5-4.1,1.5c-1,1-1.5,2.3-1.5,4c0,2.2,0.7,3.9,2,5.2c1.3,1.3,4.5,3.4,9.5,6.3c5.2,2.9,9.2,5.7,12.1,8.3 c2.9,2.6,5.1,5.9,6.8,9.9c1.7,4,2.5,8.7,2.5,14.2c0,24.1-11.7,36.2-35.2,36.2c-12,0-23.1-2.6-33.3-7.9L184.6-204.7z" class="st20"/><path d="M286.4-162.5h-32.3v-107.3h31.3l13.1,22.4l13.1-22.4h31.5v107.3h-32.3v-53.7l-12.4,20.7l-12.1-20.7V-162.5z" class="st20"/><path d="M390.5-162.5h-32.3v-107.3h32.3V-162.5z" class="st20"/><path d="M465.8-162.5h-60.7v-107.3h32.3v80.4h28.4V-162.5z" class="st20"/><path d="M505.9-189.5h28.3v26.9h-60.5v-107.3h60.5v26.9h-28.3v13.3h19.8v26.9h-19.8V-189.5z" class="st20"/></g><g class="st1"><rect width="792" height="132.3" x="-37.1" y="715.8" class="st19"/><path d="M78.8,746v23.4H62.6V746l-13.9-30.2h16.3l5.6,12.2l5.6-12.2h16.3L78.8,746z" class="st20"/><path d="M108.7,714.9c4.8,0,9,2.7,12.7,8.1c3.6,5.4,5.4,11.8,5.4,19.2c0,8.4-1.8,15.1-5.3,20.3 c-3.6,5.2-8.1,7.8-13.7,7.8c-4.8,0-9-2.5-12.7-7.6c-3.7-5-5.6-12.1-5.6-21.2c0-4.4,0.8-8.7,2.4-12.8c1.6-4.1,3.8-7.4,6.6-10 C101.3,716.2,104.7,714.9,108.7,714.9z M108.1,735.5c-1,0-1.9,0.5-2.6,1.6c-0.7,1.1-1.1,2.4-1.1,4c0,1.6,0.4,3,1.1,4 s1.6,1.6,2.6,1.6c1.1,0,2-0.5,2.7-1.6c0.7-1,1.1-2.4,1.1-4.1c0-1.6-0.4-3-1.1-4C110.1,736,109.2,735.5,108.1,735.5z" class="st20"/><path d="M152.2,715.8h16.1v20c0,5.8-0.1,10-0.4,12.6s-0.8,5.3-1.8,8.2s-2.2,5.3-3.9,7.3c-1.6,2-3.5,3.6-5.6,4.7 c-2.1,1.1-4.2,1.7-6.4,1.7c-2.8,0-5.5-0.9-8.1-2.6c-2.6-1.7-4.7-4.1-6.2-7c-1.5-2.9-2.5-6.1-3.1-9.5c-0.5-3.4-0.8-8.5-0.8-15.3 v-20.1h16.1v24.9c0,2.2,0.1,3.7,0.4,4.7c0.3,0.9,0.8,1.4,1.5,1.4c0.9,0,1.4-0.5,1.7-1.6s0.4-3.3,0.4-6.7V715.8z" class="st20"/><path d="M176.5,747.8l-0.5-0.5c2.3-2,3.6-5,3.8-9c-4.3-1.9-6.4-5.6-6.4-11.3c0-3.4,0.8-6.3,2.4-8.7 c1.6-2.4,3.5-3.6,5.7-3.6c2.4,0,4.3,1.2,5.7,3.6c1.4,2.4,2.2,5.7,2.2,9.8c0,4.3-1.2,8.4-3.7,12.3 C183.3,744.5,180.2,746.9,176.5,747.8z" class="st20"/><path d="M194.8,769.4v-53.6H211c5.6,0,9.4,0.2,11.3,0.6c1.9,0.4,3.6,1.2,5,2.5c1.4,1.3,2.5,3.1,3.4,5.4 c0.9,2.3,1.3,4.7,1.3,7.3c0,5.4-1.4,9.4-4.1,12.2c4,6.6,6.3,15.1,7.1,25.7H218v-0.5c0-6.3-0.6-11.1-1.8-14.4s-2.9-5-5.1-5H211 v19.9H194.8z M211.2,726.8H211v10.3h0.4c1.6,0,2.7-0.4,3.4-1.3s1.1-2.2,1.1-4C215.8,728.5,214.3,726.8,211.2,726.8z" class="st20"/><path d="M254.8,756h14.1v13.5h-30.3v-53.6h30.3v13.5h-14.1v6.6h9.9v13.5h-9.9V756z" class="st20"/><path d="M315.8,714.9c4.8,0,9,2.7,12.7,8.1c3.6,5.4,5.4,11.8,5.4,19.2c0,8.4-1.8,15.1-5.3,20.3 c-3.6,5.2-8.1,7.8-13.7,7.8c-4.8,0-9-2.5-12.7-7.6c-3.7-5-5.6-12.1-5.6-21.2c0-4.4,0.8-8.7,2.4-12.8c1.6-4.1,3.8-7.4,6.6-10 C308.3,716.2,311.7,714.9,315.8,714.9z M315.1,735.5c-1,0-1.9,0.5-2.6,1.6c-0.7,1.1-1.1,2.4-1.1,4c0,1.6,0.4,3,1.1,4 s1.6,1.6,2.6,1.6c1.1,0,2-0.5,2.7-1.6c0.7-1,1.1-2.4,1.1-4.1c0-1.6-0.4-3-1.1-4C317.1,736,316.2,735.5,315.1,735.5z" class="st20"/><path d="M355.8,753.2v16.3h-16.1v-53.6h11.5l8.6,17.9v-17.9h16.1v54h-12.3L355.8,753.2z" class="st20"/><path d="M434.3,744.4l6.8,20.3c-1.4,1.3-3.5,2.6-6.2,3.7s-5.7,1.7-8.9,1.7c-5.7,0-10.5-2.6-14.3-7.7 c-3.8-5.1-5.7-11.7-5.7-19.7c0-8.1,1.9-14.8,5.7-20.1c3.8-5.3,8.7-7.9,14.5-7.9c2.6,0,5.2,0.5,7.9,1.5c2.7,1,5,2.4,6.9,4.2 l-6.8,18.9c-1.9-1-4-1.5-6.6-1.5c-3.4,0-5.2,1.3-5.2,4c0,1.3,0.5,2.3,1.4,3.1s2.2,1.2,3.8,1.2 C430.3,746.3,432.5,745.7,434.3,744.4z" class="st20"/><path d="M459.9,760.3l-2.1,9.1h-16.3l13-53.6h23l12.4,53.6h-16.2l-2.1-9.1H459.9z M462.8,747.7h6l-3-13.1 L462.8,747.7z" class="st20"/><path d="M509.5,769.4h-16.1v-53.6H509l6.5,11.2l6.6-11.2h15.8v53.6h-16.1v-26.9l-6.2,10.4l-6-10.4V769.4z" class="st20"/><path d="M561.5,756h14.1v13.5h-30.3v-53.6h30.3v13.5h-14.1v6.6h9.9v13.5h-9.9V756z" class="st20"/><path d="M580.5,769.4v-53.6h16.1c5.6,0,9.4,0.2,11.3,0.6c1.9,0.4,3.6,1.2,5,2.5c1.4,1.3,2.5,3.1,3.4,5.4 s1.3,4.7,1.3,7.3c0,5.4-1.4,9.4-4.1,12.2c4,6.6,6.3,15.1,7.1,25.7h-16.8v-0.5c0-6.3-0.6-11.1-1.8-14.4s-2.9-5-5.1-5h-0.2v19.9 H580.5z M597,726.8h-0.3v10.3h0.4c1.6,0,2.7-0.4,3.4-1.3s1.1-2.2,1.1-4C601.6,728.5,600,726.8,597,726.8z" class="st20"/><path d="M639.4,760.3l-2.1,9.1h-16.3l13-53.6h23l12.4,53.6h-16.2l-2.1-9.1H639.4z M642.2,747.7h6l-3-13.1 L642.2,747.7z" class="st20"/></g></g></svg>