<svg xmlns="http://www.w3.org/2000/svg" viewBox="0 0 64 64" >
<style type="text/css">
.st1{fill:#ccc;stroke:#333;}
.st2{fill:#993D62;stroke:#333;}
.st3{fill:none;stroke:#333;}
.st4{fill:#ccc;stroke:#333;stroke-linejoin:bevel;}
.st5{fill:#333;}
</style>

<circle class="st1" cx="32" cy="32" r="24"/>
<circle class="st2" cx="32" cy="32" r="20"/>

<circle class="st3" cx="32" cy="32" r="8"/>
<circle class="st3" cx="32" cy="32" r="4"/>
<line class="st3" x1="32" y1="28" x2="32" y2="24"/>
<line class="st3" x1="36" y1="32" x2="40" y2="32"/>
<line class="st3" x1="32" y1="36" x2="32" y2="40"/>
<line class="st3" x1="28" y1="32" x2="24" y2="32"/>
<line class="st3" x1="31" y1="28.1" x2="29.9" y2="24.3"/>
<line class="st3" x1="35.9" y1="31" x2="39.7" y2="29.9"/>
<line class="st3" x1="33" y1="35.9" x2="34.1" y2="39.7"/>
<line class="st3" x1="28.1" y1="33" x2="24.3" y2="34.1"/>
<line class="st3" x1="30" y1="28.5" x2="28" y2="25.1"/>
<line class="st3" x1="35.5" y1="30" x2="38.9" y2="28"/>
<line class="st3" x1="34" y1="35.5" x2="36" y2="38.9"/>
<line class="st3" x1="28.5" y1="34" x2="25.1" y2="36"/>
<line class="st3" x1="29.2" y1="29.2" x2="26.3" y2="26.3"/>
<line class="st3" x1="34.8" y1="29.2" x2="37.7" y2="26.3"/>
<line class="st3" x1="34.8" y1="34.8" x2="37.7" y2="37.7"/>
<line class="st3" x1="29.2" y1="34.8" x2="26.3" y2="37.7"/>
<line class="st3" x1="28.5" y1="30" x2="25.1" y2="28"/>
<line class="st3" x1="34" y1="28.5" x2="36" y2="25.1"/>
<line class="st3" x1="35.5" y1="34" x2="38.9" y2="36"/>
<line class="st3" x1="30" y1="35.5" x2="28" y2="38.9"/>
<line class="st3" x1="28.1" y1="31" x2="24.3" y2="29.9"/>
<line class="st3" x1="33" y1="28.1" x2="34.1" y2="24.3"/>
<line class="st3" x1="35.9" y1="33" x2="39.7" y2="34.1"/>
<line class="st3" x1="31" y1="35.9" x2="29.9" y2="39.7"/>

<line class="st3" x1="29.9" y1="24.3" x2="26.8" y2="12.7"/>
<line class="st3" x1="39.7" y1="29.9" x2="51.3" y2="26.8"/>
<line class="st3" x1="34.1" y1="39.7" x2="37.2" y2="51.3"/>
<line class="st3" x1="24.3" y1="34.1" x2="12.7" y2="37.2"/>
<line class="st3" x1="28" y1="25.1" x2="22" y2="14.7"/>
<line class="st3" x1="38.9" y1="28" x2="49.3" y2="22"/>
<line class="st3" x1="36" y1="38.9" x2="42" y2="49.3"/>
<line class="st3" x1="25.1" y1="36" x2="14.7" y2="42"/>
<line class="st3" x1="25.1" y1="28" x2="14.7" y2="22"/>
<line class="st3" x1="36" y1="25.1" x2="42" y2="14.7"/>
<line class="st3" x1="38.9" y1="36" x2="49.3" y2="42"/>
<line class="st3" x1="28" y1="38.9" x2="22" y2="49.3"/>
<line class="st3" x1="24.3" y1="29.9" x2="12.7" y2="26.8"/>
<line class="st3" x1="34.1" y1="24.3" x2="37.2" y2="12.7"/>
<line class="st3" x1="39.7" y1="34.1" x2="51.3" y2="37.2"/>
<line class="st3" x1="29.9" y1="39.7" x2="26.8" y2="51.3"/>

<polygon class="st4" points="28,24 32,8 36,24 		"/>
<polygon class="st4" points="23.5,29.2 15,15 29.2,23.5 		"/>
<polygon class="st4" points="24,36 8,32 24,28 		"/>
<polygon class="st4" points="29.2,40.5 15,49 23.5,34.8 		"/>
<polygon class="st4" points="36,40 32,56 28,40 		"/>
<polygon class="st4" points="40.5,34.8 49,49 34.8,40.5 		"/>
<polygon class="st4" points="40,28 56,32 40,36 		"/>
<polygon class="st4" points="34.8,23.5 49,15 40.5,29.2 		"/>

<polygon class="st5" points="30,24 32,16 34,24 		"/>
<polygon class="st5" points="34,40 32,48 30,40 		"/>
<polygon class="st5" points="24.9,27.8 20.7,20.7 27.8,24.9 		"/>
<polygon class="st5" points="39.1,36.2 43.3,43.3 36.2,39.1 		"/>
<polygon class="st5" points="24,34 16,32 24,30 		"/>
<polygon class="st5" points="40,30 48,32 40,34 		"/>
<polygon class="st5" points="27.8,39.1 20.7,43.3 24.9,36.2 		"/>
<polygon class="st5" points="36.2,24.9 43.3,20.7 39.1,27.8 		"/>

</svg>